<?xml version="1.0" encoding="UTF-8" standalone="no"?>
<!DOCTYPE svg PUBLIC "-//W3C//DTD SVG 1.1//EN"
 "http://www.w3.org/Graphics/SVG/1.1/DTD/svg11.dtd">
<!-- Generated by graphviz version 2.40.1 (20161225.0304)
 -->
<!-- Title: waste_management Pages: 1 -->
<svg width="804pt" height="161pt"
 viewBox="0.00 0.00 803.69 160.80" xmlns="http://www.w3.org/2000/svg" xmlns:xlink="http://www.w3.org/1999/xlink">
<g id="graph0" class="graph" transform="scale(1 1) rotate(0) translate(4 156.8)">
<title>waste_management</title>
<polygon fill="#ffffff" stroke="transparent" points="-4,4 -4,-156.8 799.6858,-156.8 799.6858,4 -4,4"/>
<!-- Household -->
<g id="node1" class="node">
<title>Household</title>
<polygon fill="#add8e6" stroke="#000000" points="153.4934,-41.4019 .1686,-41.4019 .1686,-.1981 153.4934,-.1981 153.4934,-41.4019"/>
<text text-anchor="middle" x="76.831" y="-25" font-family="Helvetica,sans-Serif" font-size="14.00" fill="#000000">Households</text>
<text text-anchor="middle" x="76.831" y="-8.2" font-family="Helvetica,sans-Serif" font-size="14.00" fill="#000000">(Smart bins / Citizens)</text>
</g>
<!-- Collection -->
<g id="node2" class="node">
<title>Collection</title>
<polygon fill="#add8e6" stroke="#000000" points="313.7988,-66.4019 189.6164,-66.4019 189.6164,-25.1981 313.7988,-25.1981 313.7988,-66.4019"/>
<text text-anchor="middle" x="251.7076" y="-50" font-family="Helvetica,sans-Serif" font-size="14.00" fill="#000000">Collection</text>
<text text-anchor="middle" x="251.7076" y="-33.2" font-family="Helvetica,sans-Serif" font-size="14.00" fill="#000000">(Trucks &amp; Crews)</text>
</g>
<!-- Household&#45;&gt;Collection -->
<g id="edge1" class="edge">
<title>Household&#45;&gt;Collection</title>
<path fill="none" stroke="#000000" d="M153.5344,-31.7654C162.1753,-33.0006 170.9582,-34.2562 179.5386,-35.4829"/>
<polygon fill="#000000" stroke="#000000" points="179.103,-38.9561 189.4977,-36.9066 180.0937,-32.0265 179.103,-38.9561"/>
</g>
<!-- Analysis -->
<g id="node6" class="node">
<title>Analysis</title>
<polygon fill="#add8e6" stroke="#000000" points="795.8588,-52.8 665.1678,-52.8 665.1678,-16.8 795.8588,-16.8 795.8588,-52.8"/>
<text text-anchor="middle" x="730.5133" y="-30.6" font-family="Helvetica,sans-Serif" font-size="14.00" fill="#000000">Data Analysis in R</text>
</g>
<!-- Household&#45;&gt;Analysis -->
<g id="edge5" class="edge">
<title>Household&#45;&gt;Analysis</title>
<path fill="none" stroke="#000000" d="M153.5937,-16.9413C165.661,-16.4666 177.9981,-16.0583 189.662,-15.8 355.7919,-12.1209 550.5191,-22.5938 655.0379,-29.4205"/>
<polygon fill="#000000" stroke="#000000" points="654.9659,-32.9233 665.1748,-30.0897 655.4271,-25.9385 654.9659,-32.9233"/>
</g>
<!-- Processing -->
<g id="node3" class="node">
<title>Processing</title>
<polygon fill="#add8e6" stroke="#000000" points="480.9489,-98.8 349.6879,-98.8 349.6879,-62.8 480.9489,-62.8 480.9489,-98.8"/>
<text text-anchor="middle" x="415.3184" y="-76.6" font-family="Helvetica,sans-Serif" font-size="14.00" fill="#000000">Processing Center</text>
</g>
<!-- Collection&#45;&gt;Processing -->
<g id="edge2" class="edge">
<title>Collection&#45;&gt;Processing</title>
<path fill="none" stroke="#000000" d="M314.0286,-59.1318C322.4016,-60.923 331.0637,-62.776 339.6357,-64.6098"/>
<polygon fill="#000000" stroke="#000000" points="339.1234,-68.0793 349.6343,-66.7487 340.5878,-61.2342 339.1234,-68.0793"/>
</g>
<!-- Collection&#45;&gt;Analysis -->
<g id="edge6" class="edge">
<title>Collection&#45;&gt;Analysis</title>
<path fill="none" stroke="#000000" d="M313.8122,-44.3732C401.3356,-42.3625 560.7864,-38.6993 655.033,-36.5341"/>
<polygon fill="#000000" stroke="#000000" points="655.1519,-40.0324 665.0689,-36.3035 654.9911,-33.0342 655.1519,-40.0324"/>
</g>
<!-- Recycling -->
<g id="node4" class="node">
<title>Recycling</title>
<polygon fill="#add8e6" stroke="#000000" points="629.5703,-152.8 516.6541,-152.8 516.6541,-116.8 629.5703,-116.8 629.5703,-152.8"/>
<text text-anchor="middle" x="573.1122" y="-130.6" font-family="Helvetica,sans-Serif" font-size="14.00" fill="#000000">Recycling Plant</text>
</g>
<!-- Processing&#45;&gt;Recycling -->
<g id="edge3" class="edge">
<title>Processing&#45;&gt;Recycling</title>
<path fill="none" stroke="#000000" d="M468.3004,-98.9314C481.9038,-103.5868 496.6635,-108.6378 510.6952,-113.4397"/>
<polygon fill="#000000" stroke="#000000" points="509.6754,-116.79 520.27,-116.7164 511.942,-110.167 509.6754,-116.79"/>
</g>
<!-- Landfill -->
<g id="node5" class="node">
<title>Landfill</title>
<polygon fill="#add8e6" stroke="#000000" points="603.454,-98.8 542.7704,-98.8 542.7704,-62.8 603.454,-62.8 603.454,-98.8"/>
<text text-anchor="middle" x="573.1122" y="-76.6" font-family="Helvetica,sans-Serif" font-size="14.00" fill="#000000">Landfill</text>
</g>
<!-- Processing&#45;&gt;Landfill -->
<g id="edge4" class="edge">
<title>Processing&#45;&gt;Landfill</title>
<path fill="none" stroke="#000000" d="M481.3229,-80.8C498.6145,-80.8 516.7553,-80.8 532.3008,-80.8"/>
<polygon fill="#000000" stroke="#000000" points="532.6062,-84.3001 542.6062,-80.8 532.6061,-77.3001 532.6062,-84.3001"/>
</g>
<!-- Recycling&#45;&gt;Analysis -->
<g id="edge7" class="edge">
<title>Recycling&#45;&gt;Analysis</title>
<path fill="none" stroke="#000000" d="M612.9013,-116.7849C618.5053,-113.934 624.1281,-110.8989 629.3408,-107.8 654.1029,-93.0794 680.4434,-73.9508 700.0386,-58.9676"/>
<polygon fill="#000000" stroke="#000000" points="702.2203,-61.705 707.9993,-52.825 697.944,-56.163 702.2203,-61.705"/>
</g>
</g>
</svg>

